<svg width="97" height="96" viewBox="0 0 97 96" fill="none" xmlns="http://www.w3.org/2000/svg">
<path d="M0.5 0V96H96.5V0H0.5ZM52.7429 74.8714C52.7429 84.2143 47.2571 88.4786 39.2643 88.4786C32.0429 88.4786 27.8643 84.75 25.7214 80.2286L33.0714 75.7929C34.4857 78.3 35.7714 80.4214 38.8786 80.4214C41.8357 80.4214 43.7214 79.2643 43.7214 74.7429V44.0786H52.7429V74.8714ZM74.0857 88.4786C65.7071 88.4786 60.2857 84.4929 57.65 79.2643L65 75.0214C66.9286 78.1714 69.4571 80.5071 73.8929 80.5071C77.6214 80.5071 80.0214 78.6429 80.0214 76.05C80.0214 72.9643 77.5786 71.8714 73.4428 70.05L71.1928 69.0857C64.6786 66.3214 60.3714 62.8286 60.3714 55.4786C60.3714 48.7071 65.5357 43.5643 73.5714 43.5643C79.3143 43.5643 83.4286 45.5571 86.3857 50.7857L79.3571 55.2857C77.8143 52.5214 76.1429 51.4286 73.55 51.4286C70.9143 51.4286 69.2429 53.1 69.2429 55.2857C69.2429 57.9857 70.9143 59.0786 74.7929 60.7714L77.0429 61.7357C84.7143 65.0143 89.0214 68.3786 89.0214 75.9214C89.0214 84.0214 82.6357 88.4786 74.0857 88.4786Z" fill="url(#paint0_linear_30_97)"/>
<defs>
<linearGradient id="paint0_linear_30_97" x1="48.5" y1="0" x2="48.5" y2="96" gradientUnits="userSpaceOnUse">
<stop stop-color="#6CDD4F"/>
<stop offset="1" stop-color="#00767B"/>
</linearGradient>
</defs>
</svg>
