<svg width="106" height="119" viewBox="0 0 106 119" fill="none" xmlns="http://www.w3.org/2000/svg">
<path d="M52.9765 119C51.402 119 49.8039 118.575 48.4174 117.772L33.9176 109.153C31.7556 107.925 32.8131 107.5 33.5181 107.264C36.4087 106.249 36.9962 106.036 40.0748 104.265C40.4038 104.076 40.8268 104.147 41.1558 104.36L52.295 110.995C52.6945 111.231 53.2585 111.231 53.6345 110.995L97.0398 85.8231C97.4393 85.587 97.6978 85.1147 97.6978 84.6424V34.2985C97.6978 33.8027 97.4393 33.354 97.0163 33.0943L53.6345 7.94593C53.235 7.70979 52.6945 7.70979 52.295 7.94593L8.93666 33.1179C8.51365 33.354 8.25515 33.8263 8.25515 34.3222V84.6424C8.25515 85.1147 8.51365 85.587 8.93666 85.7995L20.8279 92.6946C27.2905 95.9297 31.2386 92.1279 31.2386 88.2789V38.5962C31.2386 37.8878 31.8026 37.3447 32.5076 37.3447H38.0067C38.6882 37.3447 39.2757 37.8878 39.2757 38.5962V88.3025C39.2757 96.945 34.5757 101.904 26.421 101.904C23.9064 101.904 21.9324 101.904 16.4333 99.1647L5.05909 92.5765C2.23903 90.9472 0.5 87.9011 0.5 84.6188V34.2985C0.5 31.0399 2.23903 27.9701 5.05909 26.3408L48.4174 1.16887C51.167 -0.389622 54.8095 -0.389622 57.5356 1.16887L100.941 26.3644C103.761 27.9937 105.5 31.0399 105.5 34.3222V84.6424C105.5 87.9011 103.761 90.9472 100.941 92.6002L57.5356 117.772C56.1491 118.575 54.5745 119 52.9765 119ZM88.0157 69.3881C88.0157 59.9664 81.6705 57.4633 68.3458 55.6923C54.8565 53.8977 53.4935 52.9768 53.4935 49.8126C53.4935 47.1915 54.645 43.6967 64.6327 43.6967C73.5394 43.6967 76.8295 45.633 78.1925 51.678C78.31 52.2448 78.827 52.6698 79.4145 52.6698H85.0546C85.4071 52.6698 85.7361 52.5281 85.9711 52.2684C86.2061 52.0086 86.3236 51.6544 86.3001 51.3002C85.4306 40.8867 78.545 36.0459 64.6327 36.0459C52.248 36.0459 44.8688 41.2881 44.8688 50.0959C44.8688 59.6358 52.2245 62.2805 64.0922 63.4612C78.31 64.8543 79.4145 66.9559 79.4145 69.766C79.4145 74.6303 75.5134 76.7083 66.3718 76.7083C54.88 76.7083 52.3655 73.8038 51.5195 68.0658C51.4255 67.4518 50.9085 67.0032 50.2739 67.0032H44.6573C43.9523 67.0032 43.4118 67.5699 43.4118 68.2547C43.4118 75.5985 47.3834 84.3591 66.3953 84.3591C80.1195 84.3354 88.0157 78.8807 88.0157 69.3881Z" fill="url(#paint0_linear_30_102)"/>
<defs>
<linearGradient id="paint0_linear_30_102" x1="53" y1="0" x2="53" y2="119" gradientUnits="userSpaceOnUse">
<stop stop-color="#6CDD4F"/>
<stop offset="1" stop-color="#00767B"/>
</linearGradient>
</defs>
</svg>
