<svg width="120" height="105" viewBox="0 0 120 105" fill="none" xmlns="http://www.w3.org/2000/svg">
<path d="M97.6988 34.1852C96.4438 33.7668 95.1887 33.3717 93.9336 32.9998C94.1428 32.1399 94.3287 31.2799 94.5146 30.4199C97.3734 16.5676 95.4908 5.43459 89.1457 1.76233C83.033 -1.74724 73.0621 1.90178 62.975 10.6873C61.9756 11.5473 60.9994 12.4537 60.0697 13.3602C59.4422 12.7559 58.7914 12.1516 58.1406 11.5705C47.5654 2.18069 36.967 -1.77048 30.6219 1.92502C24.5324 5.45784 22.7195 15.9401 25.2762 29.0487C25.5318 30.3502 25.8107 31.6285 26.1361 32.9301C24.6486 33.3485 23.1844 33.8133 21.8131 34.3014C9.40176 38.6012 0.5 45.3879 0.5 52.4071C0.5 59.6586 9.98281 66.9334 22.8822 71.3494C23.9281 71.6981 24.974 72.0467 26.0432 72.3488C25.6945 73.7434 25.3924 75.1147 25.1135 76.5324C22.673 89.4318 24.5789 99.6584 30.6684 103.168C36.9438 106.794 47.4957 103.075 57.7687 94.0803C58.5822 93.3598 59.3957 92.616 60.2092 91.8258C61.2318 92.8252 62.301 93.7781 63.3701 94.7078C73.3178 103.261 83.1492 106.724 89.2154 103.214C95.4908 99.5887 97.5361 88.5951 94.8865 75.2076C94.6773 74.185 94.4449 73.1391 94.1893 72.0699C94.933 71.8608 95.6535 71.6283 96.374 71.3959C109.785 66.9567 119.5 59.7748 119.5 52.4071C119.5 45.3647 110.343 38.5315 97.6988 34.1852ZM66.2521 14.4526C74.8982 6.92209 82.9633 3.97034 86.6356 6.08537C90.5635 8.33987 92.0742 17.4508 89.6105 29.4205C89.4479 30.2108 89.2852 30.9778 89.076 31.7447C83.9162 30.5826 78.6867 29.7459 73.434 29.2811C70.4125 24.958 67.1121 20.8209 63.5328 16.9395C64.4393 16.0795 65.3225 15.266 66.2521 14.4526ZM39.3609 64.4697C40.5463 66.4918 41.7549 68.5139 43.0332 70.4895C39.4074 70.0944 35.8049 69.5133 32.2488 68.7463C33.2715 65.3994 34.5498 61.9363 36.0373 58.4035C37.1064 60.4488 38.1988 62.4709 39.3609 64.4697ZM32.3186 36.5094C35.6654 35.7656 39.2215 35.1613 42.917 34.6965C41.6852 36.6256 40.4766 38.6012 39.3377 40.6C38.1988 42.5756 37.0832 44.5977 36.0373 46.643C34.573 43.1799 33.3412 39.7865 32.3186 36.5094ZM38.6869 52.5233C40.2209 49.3158 41.8943 46.1781 43.6607 43.0869C45.4271 39.9957 47.333 36.9975 49.3318 34.0457C52.8182 33.7901 56.3742 33.6506 60 33.6506C63.6258 33.6506 67.2051 33.7901 70.6682 34.0457C72.6437 36.9742 74.5264 39.9725 76.316 43.0405C78.1057 46.1084 79.7791 49.2461 81.3596 52.4303C79.8023 55.6377 78.1289 58.7986 76.3393 61.9131C74.5728 65.0043 72.6902 68.0026 70.7147 70.9776C67.2516 71.2332 63.649 71.3494 60 71.3494C56.351 71.3494 52.8182 71.2332 49.4016 71.024C47.3795 68.0723 45.4736 65.0508 43.684 61.9596C41.8943 58.8684 40.2441 55.7307 38.6869 52.5233ZM80.6623 64.4233C81.8477 62.3779 82.9633 60.3094 84.0557 58.2176C85.5432 61.5877 86.8447 65.0043 87.9836 68.5139C84.3811 69.3274 80.732 69.9549 77.0598 70.3733C78.3148 68.4209 79.5002 66.4221 80.6623 64.4233ZM84.0092 46.643C82.9168 44.5977 81.8012 42.5524 80.6391 40.5535C79.5002 38.5779 78.3148 36.6256 77.083 34.6965C80.825 35.1613 84.4043 35.7889 87.7512 36.5559C86.682 39.9957 85.4269 43.3426 84.0092 46.643ZM60.0465 20.4955C62.4869 23.1451 64.7879 25.9342 66.9262 28.8162C62.3242 28.6071 57.699 28.6071 53.0971 28.8162C55.3748 25.818 57.7223 23.0289 60.0465 20.4955ZM33.0855 6.24807C36.9902 3.97034 45.6596 7.22424 54.7938 15.3125C55.3748 15.8239 55.9559 16.3817 56.5602 16.9395C52.9576 20.8209 49.634 24.958 46.5893 29.2811C41.3365 29.7459 36.1303 30.5594 30.9705 31.6983C30.6684 30.5129 30.4127 29.3043 30.157 28.0957C27.9723 16.8465 29.4133 8.36311 33.0855 6.24807ZM27.3912 67.5145C26.415 67.2356 25.4621 66.9334 24.5092 66.608C19.5586 65.0508 13.934 62.5871 9.8666 59.3565C7.51914 57.7295 5.93867 55.2194 5.49707 52.4071C5.49707 48.1537 12.8416 42.7151 23.44 39.0196C24.7648 38.5547 26.1129 38.1363 27.4609 37.7412C29.0414 42.7848 30.9473 47.7354 33.1553 52.5233C30.924 57.3809 28.9949 62.4012 27.3912 67.5145ZM54.4916 90.2918C50.6566 93.8014 46.2174 96.5904 41.383 98.4963C38.8031 99.7281 35.8281 99.8444 33.1785 98.7985C29.483 96.6602 27.949 88.4557 30.0408 77.4156C30.2965 76.1141 30.5754 74.8125 30.9008 73.5342C36.107 74.6498 41.3598 75.4168 46.6822 75.8119C49.7502 80.1582 53.1203 84.3186 56.7229 88.2233C55.9791 88.9438 55.2354 89.641 54.4916 90.2918ZM60.1859 84.644C57.8152 82.0873 55.4445 79.2518 53.1436 76.207C55.3748 76.3 57.6758 76.3465 60 76.3465C62.3939 76.3465 64.7414 76.3 67.0656 76.1838C64.9273 79.1356 62.6264 81.9479 60.1859 84.644ZM90.5635 91.6166C90.3543 94.4522 88.9598 97.1018 86.7285 98.8914C83.033 101.03 75.1539 98.2406 66.6473 90.9426C65.6711 90.1059 64.6949 89.1994 63.6955 88.2697C67.2516 84.3418 70.5287 80.1815 73.5037 75.8119C78.8262 75.3703 84.1254 74.5568 89.3549 73.3715C89.5873 74.3244 89.7965 75.2774 89.9824 76.207C91.1213 81.2274 91.3072 86.4568 90.5635 91.6166ZM94.7936 66.6313C94.1428 66.8404 93.492 67.0496 92.818 67.2356C91.191 62.1688 89.1922 57.2182 86.8912 52.4071C89.1225 47.6656 91.0051 42.7848 92.5855 37.7877C93.7941 38.1363 94.9563 38.5082 96.0719 38.8801C106.903 42.5988 114.503 48.1305 114.503 52.3606C114.503 56.916 106.391 62.7963 94.7936 66.6313ZM60 63.1449C65.8803 63.1449 70.6449 58.3803 70.6449 52.5C70.6449 46.6197 65.8803 41.8551 60 41.8551C54.1197 41.8551 49.3551 46.6197 49.3551 52.5C49.3551 58.3803 54.1197 63.1449 60 63.1449Z" fill="url(#paint0_linear_30_105)"/>
<defs>
<linearGradient id="paint0_linear_30_105" x1="60" y1="0.44043" x2="60" y2="104.571" gradientUnits="userSpaceOnUse">
<stop stop-color="#6CDD4F"/>
<stop offset="1" stop-color="#00767B"/>
</linearGradient>
</defs>
</svg>
